<mxfile host="app.diagrams.net" modified="2024-06-13T00:46:34.904Z" agent="Mozilla/5.0 (Windows NT 10.0; Win64; x64; rv:127.0) Gecko/20100101 Firefox/127.0" etag="f9Bw1cWjjPFuc9GGpxjw" version="24.5.4" type="device">
  <diagram name="Page-1" id="UEBIZrYw3lUsxea4DjVB">
    <mxGraphModel dx="928" dy="72" grid="1" gridSize="10" guides="1" tooltips="1" connect="1" arrows="1" fold="1" page="1" pageScale="1" pageWidth="850" pageHeight="1100" math="0" shadow="0">
      <root>
        <mxCell id="0" />
        <mxCell id="1" parent="0" />
        <mxCell id="-afth7PykaMVxRmtNgvt-57" value="new_datapoint" style="strokeWidth=2;html=1;shape=mxgraph.flowchart.start_1;whiteSpace=wrap;fillColor=#dae8fc;strokeColor=#6c8ebf;" vertex="1" parent="1">
          <mxGeometry x="120" y="1260" width="100" height="60" as="geometry" />
        </mxCell>
        <mxCell id="-afth7PykaMVxRmtNgvt-58" value="&lt;div&gt;get_datapoints&lt;/div&gt;" style="strokeWidth=2;html=1;shape=mxgraph.flowchart.start_1;whiteSpace=wrap;fillColor=#dae8fc;strokeColor=#6c8ebf;" vertex="1" parent="1">
          <mxGeometry x="431.25" y="1260" width="100" height="60" as="geometry" />
        </mxCell>
        <mxCell id="-afth7PykaMVxRmtNgvt-61" value="" style="endArrow=none;dashed=1;html=1;dashPattern=1 3;strokeWidth=2;rounded=0;" edge="1" parent="1" source="-afth7PykaMVxRmtNgvt-93">
          <mxGeometry width="50" height="50" relative="1" as="geometry">
            <mxPoint x="340" y="1880" as="sourcePoint" />
            <mxPoint x="337" y="1310" as="targetPoint" />
          </mxGeometry>
        </mxCell>
        <mxCell id="-afth7PykaMVxRmtNgvt-60" value="PostgreSQL" style="strokeWidth=2;html=1;shape=mxgraph.flowchart.database;whiteSpace=wrap;verticalAlign=middle;" vertex="1" parent="1">
          <mxGeometry x="300" y="1420" width="75" height="60" as="geometry" />
        </mxCell>
        <mxCell id="-afth7PykaMVxRmtNgvt-62" value="" style="endArrow=classic;html=1;rounded=0;" edge="1" parent="1" source="-afth7PykaMVxRmtNgvt-58" target="-afth7PykaMVxRmtNgvt-60">
          <mxGeometry width="50" height="50" relative="1" as="geometry">
            <mxPoint x="450" y="1230" as="sourcePoint" />
            <mxPoint x="600" y="1340" as="targetPoint" />
          </mxGeometry>
        </mxCell>
        <mxCell id="-afth7PykaMVxRmtNgvt-69" value="Abfrage des Devices mit gegebenem Namen" style="edgeLabel;html=1;align=center;verticalAlign=middle;resizable=0;points=[];" vertex="1" connectable="0" parent="-afth7PykaMVxRmtNgvt-62">
          <mxGeometry x="0.3818" relative="1" as="geometry">
            <mxPoint x="-45" y="6" as="offset" />
          </mxGeometry>
        </mxCell>
        <mxCell id="-afth7PykaMVxRmtNgvt-64" value="" style="endArrow=classic;html=1;rounded=0;" edge="1" parent="1" source="-afth7PykaMVxRmtNgvt-57" target="-afth7PykaMVxRmtNgvt-60">
          <mxGeometry width="50" height="50" relative="1" as="geometry">
            <mxPoint x="171" y="1320" as="sourcePoint" />
            <mxPoint x="80" y="1470" as="targetPoint" />
          </mxGeometry>
        </mxCell>
        <mxCell id="-afth7PykaMVxRmtNgvt-65" value="device_name: String,&lt;br&gt;new_datapoint: SensorDatapoint" style="edgeLabel;html=1;align=center;verticalAlign=middle;resizable=0;points=[];" vertex="1" connectable="0" parent="-afth7PykaMVxRmtNgvt-64">
          <mxGeometry x="-0.1596" y="-2" relative="1" as="geometry">
            <mxPoint x="-64" y="-23" as="offset" />
          </mxGeometry>
        </mxCell>
        <mxCell id="-afth7PykaMVxRmtNgvt-66" value="device_name: String" style="edgeLabel;html=1;align=center;verticalAlign=middle;resizable=0;points=[];" vertex="1" connectable="0" parent="1">
          <mxGeometry x="491.25152679240637" y="1289.995262983188" as="geometry">
            <mxPoint x="-20" y="48" as="offset" />
          </mxGeometry>
        </mxCell>
        <mxCell id="-afth7PykaMVxRmtNgvt-70" value="" style="endArrow=classic;html=1;rounded=0;" edge="1" parent="1" source="-afth7PykaMVxRmtNgvt-60" target="-afth7PykaMVxRmtNgvt-71">
          <mxGeometry width="50" height="50" relative="1" as="geometry">
            <mxPoint x="420" y="1540" as="sourcePoint" />
            <mxPoint x="470" y="1490" as="targetPoint" />
          </mxGeometry>
        </mxCell>
        <mxCell id="-afth7PykaMVxRmtNgvt-74" value="&lt;div&gt;erfolgreich&lt;/div&gt;" style="edgeLabel;html=1;align=center;verticalAlign=middle;resizable=0;points=[];" vertex="1" connectable="0" parent="-afth7PykaMVxRmtNgvt-70">
          <mxGeometry y="1" relative="1" as="geometry">
            <mxPoint as="offset" />
          </mxGeometry>
        </mxCell>
        <mxCell id="-afth7PykaMVxRmtNgvt-71" value="Ist das gefundene De-&lt;br&gt;vice vom Typ Sensor?" style="strokeWidth=2;html=1;shape=mxgraph.flowchart.decision;whiteSpace=wrap;" vertex="1" parent="1">
          <mxGeometry x="262.5" y="1520" width="152.5" height="100" as="geometry" />
        </mxCell>
        <mxCell id="-afth7PykaMVxRmtNgvt-75" value="" style="endArrow=classic;html=1;rounded=0;" edge="1" parent="1" source="-afth7PykaMVxRmtNgvt-60" target="-afth7PykaMVxRmtNgvt-77">
          <mxGeometry width="50" height="50" relative="1" as="geometry">
            <mxPoint x="500" y="1560" as="sourcePoint" />
            <mxPoint x="450" y="1510" as="targetPoint" />
          </mxGeometry>
        </mxCell>
        <mxCell id="-afth7PykaMVxRmtNgvt-76" value="&lt;div&gt;sonstiger&lt;br&gt;Fehler&lt;/div&gt;" style="edgeLabel;html=1;align=center;verticalAlign=middle;resizable=0;points=[];" vertex="1" connectable="0" parent="-afth7PykaMVxRmtNgvt-75">
          <mxGeometry x="0.1075" relative="1" as="geometry">
            <mxPoint x="-12" as="offset" />
          </mxGeometry>
        </mxCell>
        <mxCell id="-afth7PykaMVxRmtNgvt-77" value="&lt;div&gt;HTTP-Code:&lt;/div&gt;&lt;div&gt;500 Internal Server Error&lt;br&gt;&lt;/div&gt;" style="strokeWidth=2;html=1;shape=mxgraph.flowchart.terminator;whiteSpace=wrap;fillColor=#f8cecc;strokeColor=#b85450;" vertex="1" parent="1">
          <mxGeometry x="450" y="1420" width="100" height="60" as="geometry" />
        </mxCell>
        <mxCell id="-afth7PykaMVxRmtNgvt-78" value="&lt;div&gt;HTTP-Code:&lt;/div&gt;&lt;div&gt;404 Not Found&lt;br&gt;&lt;/div&gt;" style="strokeWidth=2;html=1;shape=mxgraph.flowchart.terminator;whiteSpace=wrap;fillColor=#f8cecc;strokeColor=#b85450;" vertex="1" parent="1">
          <mxGeometry x="120" y="1420" width="100" height="60" as="geometry" />
        </mxCell>
        <mxCell id="-afth7PykaMVxRmtNgvt-79" value="" style="endArrow=classic;html=1;rounded=0;" edge="1" parent="1" source="-afth7PykaMVxRmtNgvt-60" target="-afth7PykaMVxRmtNgvt-78">
          <mxGeometry width="50" height="50" relative="1" as="geometry">
            <mxPoint x="382.5" y="1500" as="sourcePoint" />
            <mxPoint x="477.5" y="1500" as="targetPoint" />
          </mxGeometry>
        </mxCell>
        <mxCell id="-afth7PykaMVxRmtNgvt-80" value="kein Eintrag&lt;br&gt;gefunden" style="edgeLabel;html=1;align=center;verticalAlign=middle;resizable=0;points=[];" vertex="1" connectable="0" parent="-afth7PykaMVxRmtNgvt-79">
          <mxGeometry x="0.1075" relative="1" as="geometry">
            <mxPoint x="8" y="-4" as="offset" />
          </mxGeometry>
        </mxCell>
        <mxCell id="-afth7PykaMVxRmtNgvt-81" value="&lt;div&gt;HTTP-Code:&lt;/div&gt;&lt;div&gt;422 Unprocessable Content&lt;br&gt;&lt;/div&gt;" style="strokeWidth=2;html=1;shape=mxgraph.flowchart.terminator;whiteSpace=wrap;fillColor=#f8cecc;strokeColor=#b85450;" vertex="1" parent="1">
          <mxGeometry x="450" y="1540" width="100" height="60" as="geometry" />
        </mxCell>
        <mxCell id="-afth7PykaMVxRmtNgvt-82" value="" style="endArrow=classic;html=1;rounded=0;" edge="1" parent="1" source="-afth7PykaMVxRmtNgvt-71" target="-afth7PykaMVxRmtNgvt-81">
          <mxGeometry width="50" height="50" relative="1" as="geometry">
            <mxPoint x="395" y="1480" as="sourcePoint" />
            <mxPoint x="490" y="1480" as="targetPoint" />
          </mxGeometry>
        </mxCell>
        <mxCell id="-afth7PykaMVxRmtNgvt-83" value="nein" style="edgeLabel;html=1;align=center;verticalAlign=middle;resizable=0;points=[];" vertex="1" connectable="0" parent="-afth7PykaMVxRmtNgvt-82">
          <mxGeometry x="0.1075" relative="1" as="geometry">
            <mxPoint x="-5" y="-10" as="offset" />
          </mxGeometry>
        </mxCell>
        <mxCell id="-afth7PykaMVxRmtNgvt-84" value="PostgreSQL" style="strokeWidth=2;html=1;shape=mxgraph.flowchart.database;whiteSpace=wrap;verticalAlign=middle;" vertex="1" parent="1">
          <mxGeometry x="416.25" y="1689.93" width="75" height="60" as="geometry" />
        </mxCell>
        <mxCell id="-afth7PykaMVxRmtNgvt-85" value="" style="endArrow=classic;html=1;rounded=0;" edge="1" parent="1" source="-afth7PykaMVxRmtNgvt-71" target="-afth7PykaMVxRmtNgvt-84">
          <mxGeometry width="50" height="50" relative="1" as="geometry">
            <mxPoint x="440" y="1680" as="sourcePoint" />
            <mxPoint x="490" y="1630" as="targetPoint" />
          </mxGeometry>
        </mxCell>
        <mxCell id="-afth7PykaMVxRmtNgvt-86" value="&lt;div&gt;ja&lt;/div&gt;" style="edgeLabel;html=1;align=center;verticalAlign=middle;resizable=0;points=[];" vertex="1" connectable="0" parent="-afth7PykaMVxRmtNgvt-85">
          <mxGeometry x="-0.0738" y="-1" relative="1" as="geometry">
            <mxPoint x="-11" y="-43" as="offset" />
          </mxGeometry>
        </mxCell>
        <mxCell id="-afth7PykaMVxRmtNgvt-88" value="Abfrage aller Datenpunkte des&lt;br&gt;gegebenen Devices" style="edgeLabel;html=1;align=center;verticalAlign=middle;resizable=0;points=[];" vertex="1" connectable="0" parent="-afth7PykaMVxRmtNgvt-85">
          <mxGeometry x="0.0813" relative="1" as="geometry">
            <mxPoint x="44" y="2" as="offset" />
          </mxGeometry>
        </mxCell>
        <mxCell id="-afth7PykaMVxRmtNgvt-89" value="PostgreSQL" style="strokeWidth=2;html=1;shape=mxgraph.flowchart.database;whiteSpace=wrap;verticalAlign=middle;" vertex="1" parent="1">
          <mxGeometry x="183.75" y="1689.93" width="75" height="60" as="geometry" />
        </mxCell>
        <mxCell id="-afth7PykaMVxRmtNgvt-90" value="" style="endArrow=classic;html=1;rounded=0;" edge="1" parent="1" source="-afth7PykaMVxRmtNgvt-71" target="-afth7PykaMVxRmtNgvt-89">
          <mxGeometry width="50" height="50" relative="1" as="geometry">
            <mxPoint x="377" y="1630" as="sourcePoint" />
            <mxPoint x="445" y="1750" as="targetPoint" />
          </mxGeometry>
        </mxCell>
        <mxCell id="-afth7PykaMVxRmtNgvt-91" value="&lt;div&gt;ja&lt;/div&gt;" style="edgeLabel;html=1;align=center;verticalAlign=middle;resizable=0;points=[];" vertex="1" connectable="0" parent="-afth7PykaMVxRmtNgvt-90">
          <mxGeometry x="-0.0738" y="-1" relative="1" as="geometry">
            <mxPoint x="17" y="-42" as="offset" />
          </mxGeometry>
        </mxCell>
        <mxCell id="-afth7PykaMVxRmtNgvt-92" value="Erstellen des neuen Datenpunktes&lt;br&gt;für gegebenes Device" style="edgeLabel;html=1;align=center;verticalAlign=middle;resizable=0;points=[];" vertex="1" connectable="0" parent="-afth7PykaMVxRmtNgvt-90">
          <mxGeometry x="0.0813" relative="1" as="geometry">
            <mxPoint x="-70" y="2" as="offset" />
          </mxGeometry>
        </mxCell>
        <mxCell id="-afth7PykaMVxRmtNgvt-93" value="&lt;div&gt;HTTP-Code:&lt;/div&gt;&lt;div&gt;500 Internal Server Error&lt;br&gt;&lt;/div&gt;" style="strokeWidth=2;html=1;shape=mxgraph.flowchart.terminator;whiteSpace=wrap;fillColor=#f8cecc;strokeColor=#b85450;" vertex="1" parent="1">
          <mxGeometry x="290" y="1789.93" width="100" height="60" as="geometry" />
        </mxCell>
        <mxCell id="-afth7PykaMVxRmtNgvt-94" value="" style="endArrow=classic;html=1;rounded=0;" edge="1" parent="1" source="-afth7PykaMVxRmtNgvt-89" target="-afth7PykaMVxRmtNgvt-93">
          <mxGeometry width="50" height="50" relative="1" as="geometry">
            <mxPoint x="386.25" y="1369.93" as="sourcePoint" />
            <mxPoint x="481.25" y="1369.93" as="targetPoint" />
          </mxGeometry>
        </mxCell>
        <mxCell id="-afth7PykaMVxRmtNgvt-95" value="&lt;div&gt;Fehler&lt;/div&gt;" style="edgeLabel;html=1;align=center;verticalAlign=middle;resizable=0;points=[];" vertex="1" connectable="0" parent="-afth7PykaMVxRmtNgvt-94">
          <mxGeometry x="0.1075" relative="1" as="geometry">
            <mxPoint x="7" y="-12" as="offset" />
          </mxGeometry>
        </mxCell>
        <mxCell id="-afth7PykaMVxRmtNgvt-97" value="HTTP-Code:&lt;br&gt;200 OK&lt;br&gt;Rückgabe des neuen Datenpunktes" style="strokeWidth=2;html=1;shape=mxgraph.flowchart.terminator;whiteSpace=wrap;fillColor=#d5e8d4;strokeColor=#82b366;" vertex="1" parent="1">
          <mxGeometry x="146.25" y="1789.93" width="100" height="60" as="geometry" />
        </mxCell>
        <mxCell id="-afth7PykaMVxRmtNgvt-98" value="" style="endArrow=classic;html=1;rounded=0;" edge="1" parent="1" source="-afth7PykaMVxRmtNgvt-89" target="-afth7PykaMVxRmtNgvt-97">
          <mxGeometry width="50" height="50" relative="1" as="geometry">
            <mxPoint x="207.25" y="1759.93" as="sourcePoint" />
            <mxPoint x="175.25" y="1799.93" as="targetPoint" />
          </mxGeometry>
        </mxCell>
        <mxCell id="-afth7PykaMVxRmtNgvt-99" value="erfolgreich" style="edgeLabel;html=1;align=center;verticalAlign=middle;resizable=0;points=[];" vertex="1" connectable="0" parent="-afth7PykaMVxRmtNgvt-98">
          <mxGeometry x="0.1075" relative="1" as="geometry">
            <mxPoint x="-24" y="-2" as="offset" />
          </mxGeometry>
        </mxCell>
        <mxCell id="-afth7PykaMVxRmtNgvt-101" value="" style="endArrow=classic;html=1;rounded=0;" edge="1" parent="1" source="-afth7PykaMVxRmtNgvt-84" target="-afth7PykaMVxRmtNgvt-93">
          <mxGeometry width="50" height="50" relative="1" as="geometry">
            <mxPoint x="267.25" y="1759.93" as="sourcePoint" />
            <mxPoint x="314.25" y="1799.93" as="targetPoint" />
          </mxGeometry>
        </mxCell>
        <mxCell id="-afth7PykaMVxRmtNgvt-102" value="&lt;div&gt;Fehler&lt;/div&gt;" style="edgeLabel;html=1;align=center;verticalAlign=middle;resizable=0;points=[];" vertex="1" connectable="0" parent="-afth7PykaMVxRmtNgvt-101">
          <mxGeometry x="0.1075" relative="1" as="geometry">
            <mxPoint x="-8" y="-12" as="offset" />
          </mxGeometry>
        </mxCell>
        <mxCell id="-afth7PykaMVxRmtNgvt-103" value="HTTP-Code:&lt;br&gt;200 OK&lt;br&gt;Rückgabe aller Datenpunkte" style="strokeWidth=2;html=1;shape=mxgraph.flowchart.terminator;whiteSpace=wrap;fillColor=#d5e8d4;strokeColor=#82b366;" vertex="1" parent="1">
          <mxGeometry x="431.25" y="1789.93" width="100" height="60" as="geometry" />
        </mxCell>
        <mxCell id="-afth7PykaMVxRmtNgvt-104" value="" style="endArrow=classic;html=1;rounded=0;" edge="1" parent="1" source="-afth7PykaMVxRmtNgvt-84" target="-afth7PykaMVxRmtNgvt-103">
          <mxGeometry width="50" height="50" relative="1" as="geometry">
            <mxPoint x="224.25" y="1759.93" as="sourcePoint" />
            <mxPoint x="214.25" y="1799.93" as="targetPoint" />
          </mxGeometry>
        </mxCell>
        <mxCell id="-afth7PykaMVxRmtNgvt-105" value="erfolgreich" style="edgeLabel;html=1;align=center;verticalAlign=middle;resizable=0;points=[];" vertex="1" connectable="0" parent="-afth7PykaMVxRmtNgvt-104">
          <mxGeometry x="0.1075" relative="1" as="geometry">
            <mxPoint x="21" y="-2" as="offset" />
          </mxGeometry>
        </mxCell>
      </root>
    </mxGraphModel>
  </diagram>
</mxfile>
